<svg xmlns="http://www.w3.org/2000/svg" width="1200" height="760" viewBox="0 0 1200 760" role="img" aria-labelledby="title desc">
<title id="title">Silver bibliography block distribution</title>
<desc id="desc">Histogram for 1392 documents and the fifteen documents with the most continuous BIB blocks.</desc>
<style>:root{color-scheme:light dark}.background{fill:#fff}text{font-family:system-ui,sans-serif;fill:#17201c}.axis{stroke:#6c756f;stroke-width:1}.grid{stroke:#d8d1c3;stroke-width:1}.bar{fill:#527963}.tail{fill:#a15e50}.small{font-size:12px}.label{font-size:14px}.heading{font-size:20px;font-weight:600}@media(prefers-color-scheme:dark){.background{fill:#111411}text{fill:#ecefe9}.axis{stroke:#a8b0aa}.grid{stroke:#46504a}.bar{fill:#74a88e}.tail{fill:#d08a78}}</style>
<rect class="background" width="1200" height="760"/>
<text class="heading" x="78" y="34">Continuous silver BIB blocks per document</text>
<text class="label" x="78" y="57">n=1392 · mean=1.43 · median=1.0 · p95=5 · max=19</text>
<line class="grid" x1="78" y1="430.0" x2="1168" y2="430.0"/>
<text class="small" x="68" y="434.0" text-anchor="end">0</text>
<line class="grid" x1="78" y1="342.0" x2="1168" y2="342.0"/>
<text class="small" x="68" y="346.0" text-anchor="end">243</text>
<line class="grid" x1="78" y1="254.0" x2="1168" y2="254.0"/>
<text class="small" x="68" y="258.0" text-anchor="end">486</text>
<line class="grid" x1="78" y1="166.0" x2="1168" y2="166.0"/>
<text class="small" x="68" y="170.0" text-anchor="end">730</text>
<line class="grid" x1="78" y1="78.0" x2="1168" y2="78.0"/>
<text class="small" x="68" y="82.0" text-anchor="end">973</text>
<rect class="bar" x="78.0" y="372.1" width="60.6" height="57.9" rx="3"/>
<text class="small" x="108.3" y="366.1" text-anchor="middle">160</text>
<text class="small" x="108.3" y="449" text-anchor="middle">0</text>
<rect class="bar" x="146.6" y="78.0" width="60.6" height="352.0" rx="3"/>
<text class="small" x="176.9" y="72.0" text-anchor="middle">973</text>
<text class="small" x="176.9" y="449" text-anchor="middle">1</text>
<rect class="bar" x="215.2" y="388.0" width="60.6" height="42.0" rx="3"/>
<text class="small" x="245.6" y="382.0" text-anchor="middle">116</text>
<text class="small" x="245.6" y="449" text-anchor="middle">2</text>
<rect class="bar" x="283.9" y="415.9" width="60.6" height="14.1" rx="3"/>
<text class="small" x="314.2" y="409.9" text-anchor="middle">39</text>
<text class="small" x="314.2" y="449" text-anchor="middle">3</text>
<rect class="bar" x="352.5" y="418.8" width="60.6" height="11.2" rx="3"/>
<text class="small" x="382.8" y="412.8" text-anchor="middle">31</text>
<text class="small" x="382.8" y="449" text-anchor="middle">4</text>
<rect class="bar" x="421.1" y="421.3" width="60.6" height="8.7" rx="3"/>
<text class="small" x="451.4" y="415.3" text-anchor="middle">24</text>
<text class="small" x="451.4" y="449" text-anchor="middle">5</text>
<rect class="bar" x="489.8" y="426.0" width="60.6" height="4.0" rx="3"/>
<text class="small" x="520.1" y="420.0" text-anchor="middle">11</text>
<text class="small" x="520.1" y="449" text-anchor="middle">6</text>
<rect class="bar" x="558.4" y="426.0" width="60.6" height="4.0" rx="3"/>
<text class="small" x="588.7" y="420.0" text-anchor="middle">11</text>
<text class="small" x="588.7" y="449" text-anchor="middle">7</text>
<rect class="bar" x="627.0" y="426.7" width="60.6" height="3.3" rx="3"/>
<text class="small" x="657.3" y="420.7" text-anchor="middle">9</text>
<text class="small" x="657.3" y="449" text-anchor="middle">8</text>
<rect class="bar" x="695.6" y="428.2" width="60.6" height="1.8" rx="3"/>
<text class="small" x="725.9" y="422.2" text-anchor="middle">5</text>
<text class="small" x="725.9" y="449" text-anchor="middle">9</text>
<rect class="bar" x="764.2" y="428.6" width="60.6" height="1.4" rx="3"/>
<text class="small" x="794.6" y="422.6" text-anchor="middle">4</text>
<text class="small" x="794.6" y="449" text-anchor="middle">10</text>
<rect class="bar" x="832.9" y="430.0" width="60.6" height="0.0" rx="3"/>
<text class="small" x="863.2" y="424.0" text-anchor="middle">0</text>
<text class="small" x="863.2" y="449" text-anchor="middle">11</text>
<rect class="bar" x="901.5" y="429.3" width="60.6" height="0.7" rx="3"/>
<text class="small" x="931.8" y="423.3" text-anchor="middle">2</text>
<text class="small" x="931.8" y="449" text-anchor="middle">12</text>
<rect class="bar" x="970.1" y="428.9" width="60.6" height="1.1" rx="3"/>
<text class="small" x="1000.4" y="422.9" text-anchor="middle">3</text>
<text class="small" x="1000.4" y="449" text-anchor="middle">13</text>
<rect class="bar" x="1038.8" y="430.0" width="60.6" height="0.0" rx="3"/>
<text class="small" x="1069.1" y="424.0" text-anchor="middle">0</text>
<text class="small" x="1069.1" y="449" text-anchor="middle">14</text>
<rect class="tail" x="1107.4" y="428.6" width="60.6" height="1.4" rx="3"/>
<text class="small" x="1137.7" y="422.6" text-anchor="middle">4</text>
<text class="small" x="1137.7" y="449" text-anchor="middle">15+</text>
<line class="axis" x1="78" y1="430" x2="1168" y2="430"/>
<text class="label" x="623.0" y="478" text-anchor="middle">BIB block count</text>
<text class="heading" x="78" y="496">Highest-scoring documents</text>
<text class="small" x="78" y="531.0">1. 9ea3e3138b74a83ec1</text>
<rect class="tail" x="316" y="520.0" width="800.0" height="9.3" rx="2"/>
<text class="small" x="1123.0" y="531.0">19</text>
<text class="small" x="78" y="544.3">2. bdae35f0737e73bf5d</text>
<rect class="tail" x="316" y="533.3" width="757.9" height="9.3" rx="2"/>
<text class="small" x="1080.9" y="544.3">18</text>
<text class="small" x="78" y="557.7">3. edbb74f5988af45550</text>
<rect class="tail" x="316" y="546.7" width="673.7" height="9.3" rx="2"/>
<text class="small" x="996.7" y="557.7">16</text>
<text class="small" x="78" y="571.0">4. 415f8322a0ba6105a1</text>
<rect class="tail" x="316" y="560.0" width="631.6" height="9.3" rx="2"/>
<text class="small" x="954.6" y="571.0">15</text>
<text class="small" x="78" y="584.3">5. 5dc840b35610f3980c</text>
<rect class="tail" x="316" y="573.3" width="547.4" height="9.3" rx="2"/>
<text class="small" x="870.4" y="584.3">13</text>
<text class="small" x="78" y="597.7">6. 7dc44e348122b1efe8</text>
<rect class="tail" x="316" y="586.7" width="547.4" height="9.3" rx="2"/>
<text class="small" x="870.4" y="597.7">13</text>
<text class="small" x="78" y="611.0">7. cfefc9244f76f2e5da</text>
<rect class="tail" x="316" y="600.0" width="547.4" height="9.3" rx="2"/>
<text class="small" x="870.4" y="611.0">13</text>
<text class="small" x="78" y="624.3">8. d60ed9b41196bee554</text>
<rect class="tail" x="316" y="613.3" width="505.3" height="9.3" rx="2"/>
<text class="small" x="828.3" y="624.3">12</text>
<text class="small" x="78" y="637.7">9. fcfbd0706517343123</text>
<rect class="tail" x="316" y="626.7" width="505.3" height="9.3" rx="2"/>
<text class="small" x="828.3" y="637.7">12</text>
<text class="small" x="78" y="651.0">10. 3ceab08822d91194a5</text>
<rect class="tail" x="316" y="640.0" width="421.1" height="9.3" rx="2"/>
<text class="small" x="744.1" y="651.0">10</text>
<text class="small" x="78" y="664.3">11. af693b43b50c273b5e</text>
<rect class="tail" x="316" y="653.3" width="421.1" height="9.3" rx="2"/>
<text class="small" x="744.1" y="664.3">10</text>
<text class="small" x="78" y="677.7">12. d01239a2d4847c0692</text>
<rect class="tail" x="316" y="666.7" width="421.1" height="9.3" rx="2"/>
<text class="small" x="744.1" y="677.7">10</text>
<text class="small" x="78" y="691.0">13. 0587a44e1a2008bd4d</text>
<rect class="tail" x="316" y="680.0" width="421.1" height="9.3" rx="2"/>
<text class="small" x="744.1" y="691.0">10</text>
<text class="small" x="78" y="704.3">14. 336cbeddc1c1eb2bd0</text>
<rect class="tail" x="316" y="693.3" width="378.9" height="9.3" rx="2"/>
<text class="small" x="701.9" y="704.3">9</text>
<text class="small" x="78" y="717.7">15. cca838e7d044aa5479</text>
<rect class="tail" x="316" y="706.7" width="378.9" height="9.3" rx="2"/>
<text class="small" x="701.9" y="717.7">9</text>
</svg>
